<svg xmlns="http://www.w3.org/2000/svg" xmlns:xlink="http://www.w3.org/1999/xlink" version="1.1" id="Layer_1" x="0px" y="0px" width="100px" height="100px" viewBox="0 0 100 100" enable-background="new 0 0 100 100" xml:space="preserve">
<path d="M62.146,49.999L92.364,19.78c1.159-1.159,1.159-3.037,0-4.195l-7.95-7.95c-1.158-1.158-3.036-1.158-4.195,0L50,37.854  L19.781,7.635c-1.158-1.158-3.037-1.158-4.196,0l-7.95,7.95c-1.159,1.158-1.159,3.036,0,4.195l30.219,30.219L7.636,80.219  c-1.16,1.159-1.16,3.037,0,4.195l7.949,7.95c1.159,1.159,3.038,1.159,4.196,0L50,62.146l30.218,30.218  c1.159,1.159,3.037,1.159,4.195,0l7.95-7.95c1.159-1.158,1.159-3.036,0-4.195L62.146,49.999z"/>
</svg>