<svg xmlns="http://www.w3.org/2000/svg" xmlns:xlink="http://www.w3.org/1999/xlink" version="1.1" id="&#1057;&#1083;&#1086;&#1081;_1" x="0px" y="0px" viewBox="5.0 -10.0 100.0 135.0" enable-background="new 0 0 100 100" xml:space="preserve" height="100px" width="100px">
<path d="M15,58.75c-0.69,0-1.25,0.56-1.25,1.25s0.56,1.25,1.25,1.25h10c0.69,0,1.25-0.56,1.25-1.25s-0.56-1.25-1.25-1.25h-3.75  v-17.5H25c0.69,0,1.25-0.56,1.25-1.25s-0.56-1.25-1.25-1.25H15c-0.69,0-1.25,0.56-1.25,1.25s0.56,1.25,1.25,1.25h3.75v17.5H15z"/>
<path d="M92.5,30h-85C6.119,30,5,31.119,5,32.5v35C5,68.881,6.119,70,7.5,70h85c1.381,0,2.5-1.119,2.5-2.5v-35  C95,31.119,93.881,30,92.5,30z M90,65H10V35h80V65z"/>
<text x="0.0" y="117.5" font-size="5.0" font-weight="bold" font-family="Helvetica Neue, Helvetica, Arial-Unicode, Arial, Sans-serif" fill="#000000">Created by Arthur Shlain</text><text x="0.0" y="122.5" font-size="5.0" font-weight="bold" font-family="Helvetica Neue, Helvetica, Arial-Unicode, Arial, Sans-serif" fill="#000000">from the Noun Project</text></svg>