<svg xmlns="http://www.w3.org/2000/svg" xmlns:xlink="http://www.w3.org/1999/xlink" version="1.1" id="Layer_1" x="0px" y="0px" width="100px" height="100px" viewBox="0 0 100 100" enable-background="new 0 0 100 100" xml:space="preserve">
<path fill="#000000" d="M13.565,70.258c-4.208,0-7.632-3.424-7.632-7.633c0-4.208,3.424-7.631,7.632-7.631  c4.208,0,7.631,3.423,7.631,7.631C21.196,66.834,17.772,70.258,13.565,70.258z M13.565,56.994c-3.105,0-5.632,2.526-5.632,5.631  c0,3.105,2.526,5.633,5.632,5.633c3.105,0,5.631-2.527,5.631-5.633C19.196,59.521,16.67,56.994,13.565,56.994z"/>
<path fill="#000000" d="M94,62.625c0,1.242-1.338,2.25-2.991,2.25H31.488c-1.651,0-2.988-1.008-2.988-2.25l0,0  c0-1.242,1.337-2.248,2.988-2.248h59.521C92.662,60.377,94,61.383,94,62.625L94,62.625z"/>
<path fill="#000000" d="M13.565,45.944c-4.208,0-7.632-3.424-7.632-7.632c0-4.208,3.424-7.631,7.632-7.631  c4.208,0,7.631,3.423,7.631,7.631C21.196,42.521,17.772,45.944,13.565,45.944z M13.565,32.682c-3.105,0-5.632,2.526-5.632,5.631  c0,3.105,2.526,5.632,5.632,5.632c3.105,0,5.631-2.526,5.631-5.632C19.196,35.208,16.67,32.682,13.565,32.682z"/>
<path fill="#000000" d="M94,38.312c0,1.242-1.338,2.25-2.991,2.25H31.488c-1.651,0-2.988-1.008-2.988-2.25l0,0  c0-1.242,1.337-2.249,2.988-2.249h59.521C92.662,36.063,94,37.07,94,38.312L94,38.312z"/>
<path fill="#000000" d="M14.164,21.632c-4.208,0-7.632-3.424-7.632-7.632c0-4.208,3.424-7.631,7.632-7.631  c4.208,0,7.631,3.423,7.631,7.631C21.795,18.208,18.372,21.632,14.164,21.632z M14.164,8.369c-3.105,0-5.632,2.526-5.632,5.631  c0,3.105,2.526,5.632,5.632,5.632c3.105,0,5.631-2.526,5.631-5.632C19.795,10.895,17.269,8.369,14.164,8.369z"/>
<path fill="#000000" d="M94,14c0,1.242-1.326,2.25-2.964,2.25H32.06c-1.636,0-2.961-1.008-2.961-2.25l0,0  c0-1.242,1.325-2.249,2.961-2.249h58.976C92.674,11.751,94,12.758,94,14L94,14z"/>
<path fill="#000000" d="M94,85.938c0,1.242-1.338,2.25-2.991,2.25H31.488c-1.651,0-2.988-1.008-2.988-2.25l0,0  c0-1.242,1.337-2.249,2.988-2.249h59.521C92.662,83.688,94,84.695,94,85.938L94,85.938z"/>
<circle fill="#000000" stroke="#231F20" stroke-miterlimit="10" cx="13.564" cy="85.938" r="6.631"/>
</svg>