<?xml version="1.0" encoding="UTF-8" standalone="no"?>
<svg
   xmlns:dc="http://purl.org/dc/elements/1.1/"
   xmlns:cc="http://creativecommons.org/ns#"
   xmlns:rdf="http://www.w3.org/1999/02/22-rdf-syntax-ns#"
   xmlns:svg="http://www.w3.org/2000/svg"
   xmlns="http://www.w3.org/2000/svg"
   xmlns:sodipodi="http://sodipodi.sourceforge.net/DTD/sodipodi-0.dtd"
   xmlns:inkscape="http://www.inkscape.org/namespaces/inkscape"
   version="1.1"
   id="Layer_1"
   x="0px"
   y="0px"
   width="100px"
   height="100px"
   viewBox="5.0 -10.0 100.0 135.0"
   enable-background="new 0 0 100 100"
   xml:space="preserve"
   inkscape:version="0.48.4 r9939"
   sodipodi:docname="setting.svg"><metadata
     id="metadata101"><rdf:RDF><cc:Work
         rdf:about=""><dc:format>image/svg+xml</dc:format><dc:type
           rdf:resource="http://purl.org/dc/dcmitype/StillImage" /><dc:title></dc:title></cc:Work></rdf:RDF></metadata><defs
     id="defs99" /><sodipodi:namedview
     pagecolor="#ffffff"
     bordercolor="#666666"
     borderopacity="1"
     objecttolerance="10"
     gridtolerance="10"
     guidetolerance="10"
     inkscape:pageopacity="0"
     inkscape:pageshadow="2"
     inkscape:window-width="1855"
     inkscape:window-height="1056"
     id="namedview97"
     showgrid="false"
     inkscape:zoom="2.36"
     inkscape:cx="50"
     inkscape:cy="-51.694915"
     inkscape:window-x="65"
     inkscape:window-y="24"
     inkscape:window-maximized="1"
     inkscape:current-layer="Layer_1" /><polygon
     fill="none"
     points="-447.585,217.25 -411.685,245.653 -452.635,269.298 -488.536,240.894 "
     id="polygon9" /><path
     opacity="0.75"
     fill="#000000"
     d="M-420.607,245.086l0.915-0.596l-7.574-4.295l-0.152-0.12l0.007-0.005v-5.765l-0.841,0.4  l-1.2,3.183l-3.363-3.781l-1.007,0.522l0.918,6.472c-7.038,3.549-11.911,5.586-16.244,7.867l-3.506-4.019l1.249-0.954l-1.506,0.659  l-3.958-4.54l1.318-1.065l-1.654,0.681l-4.192-4.808c0,0-1.895,1.488-1.699,2.083c0.063,0.195,0.718,2.076,1.566,4.505l-1.484,0.611  c0,0-1.111,0.458,0,1.337c0.871,0.688,1.411,0.457,1.605,0.323l0.082-0.066l0,0l0.442-0.355c0.475,1.361,0.977,2.796,1.449,4.148  l-1.088,0.477c-0.169,0.088-0.875,0.521,0.035,1.242c1.025,0.811,1.439,0.611,1.495,0.568l0,0.001l0.283-0.216  c0.638,1.828,1.146,3.279,1.336,3.824c-5.397,3.008-7.141,4.258-8.042,4.989c-1.708,1.388-2.075,3.807-2.075,3.807l0.004-0.003  c-0.042,0.299,0.042,0.553,0.286,0.745c2.344,1.854,13.208-4.145,15.065-5.225c0,0,2.431,0.67,5.726,1.579  c0,0-0.803,0.351,0.023,1.091l0.315,0.25c0.884,0.639,1.25,0.463,1.302,0.423l0.001,0.002l1.263-0.966  c1.9,0.524,3.916,1.079,5.828,1.606l-0.37,0.152h0c0,0-1.111,0.458,0,1.337c0.824,0.652,1.353,0.479,1.571,0.346l1.389-1.121  c3.399,0.936,6.025,1.658,6.301,1.73c0.836,0.222,3.294-0.821,3.294-0.821l-6.346-3.535l1.241-1.002l-1.749,0.72l-6.011-3.348  l1.186-0.906l-1.576,0.689l-5.507-3.067l14.568-9.265L-420.607,245.086z"
     id="path11" /><path
     fill="#000000"
     d="M992.555-161.5l-3.805-78h-105v-11h53.5v-27h-123v27h53.5v11h-105l-3.805,78h-9.695v45h7.5h238h7.5v-45  H992.555z M885.611-224.5c3.037,0,5.5,2.462,5.5,5.5s-2.463,5.5-5.5,5.5c-3.038,0-5.5-2.462-5.5-5.5S882.573-224.5,885.611-224.5z   M885.611-203.5c3.037,0,5.5,2.462,5.5,5.5s-2.463,5.5-5.5,5.5c-3.038,0-5.5-2.462-5.5-5.5S882.573-203.5,885.611-203.5z   M885.611-182.5c3.037,0,5.5,2.462,5.5,5.5s-2.463,5.5-5.5,5.5c-3.038,0-5.5-2.462-5.5-5.5S882.573-182.5,885.611-182.5z   M864.611-224.5c3.037,0,5.5,2.462,5.5,5.5s-2.463,5.5-5.5,5.5c-3.038,0-5.5-2.462-5.5-5.5S861.573-224.5,864.611-224.5z   M864.611-203.5c3.037,0,5.5,2.462,5.5,5.5s-2.463,5.5-5.5,5.5c-3.038,0-5.5-2.462-5.5-5.5S861.573-203.5,864.611-203.5z   M864.611-182.5c3.037,0,5.5,2.462,5.5,5.5s-2.463,5.5-5.5,5.5c-3.038,0-5.5-2.462-5.5-5.5S861.573-182.5,864.611-182.5z   M780.611-171.5c-3.038,0-5.5-2.462-5.5-5.5s2.462-5.5,5.5-5.5c3.037,0,5.5,2.462,5.5,5.5S783.648-171.5,780.611-171.5z   M780.611-192.5c-3.038,0-5.5-2.462-5.5-5.5s2.462-5.5,5.5-5.5c3.037,0,5.5,2.462,5.5,5.5S783.648-192.5,780.611-192.5z   M780.611-213.5c-3.038,0-5.5-2.462-5.5-5.5s2.462-5.5,5.5-5.5c3.037,0,5.5,2.462,5.5,5.5S783.648-213.5,780.611-213.5z   M801.611-171.5c-3.038,0-5.5-2.462-5.5-5.5s2.462-5.5,5.5-5.5c3.037,0,5.5,2.462,5.5,5.5S804.648-171.5,801.611-171.5z   M801.611-192.5c-3.038,0-5.5-2.462-5.5-5.5s2.462-5.5,5.5-5.5c3.037,0,5.5,2.462,5.5,5.5S804.648-192.5,801.611-192.5z   M801.611-213.5c-3.038,0-5.5-2.462-5.5-5.5s2.462-5.5,5.5-5.5c3.037,0,5.5,2.462,5.5,5.5S804.648-213.5,801.611-213.5z   M822.611-171.5c-3.038,0-5.5-2.462-5.5-5.5s2.462-5.5,5.5-5.5c3.037,0,5.5,2.462,5.5,5.5S825.648-171.5,822.611-171.5z   M822.611-192.5c-3.038,0-5.5-2.462-5.5-5.5s2.462-5.5,5.5-5.5c3.037,0,5.5,2.462,5.5,5.5S825.648-192.5,822.611-192.5z   M822.611-213.5c-3.038,0-5.5-2.462-5.5-5.5s2.462-5.5,5.5-5.5c3.037,0,5.5,2.462,5.5,5.5S825.648-213.5,822.611-213.5z   M843.611-171.5c-3.038,0-5.5-2.462-5.5-5.5s2.462-5.5,5.5-5.5c3.037,0,5.5,2.462,5.5,5.5S846.648-171.5,843.611-171.5z   M843.611-192.5c-3.038,0-5.5-2.462-5.5-5.5s2.462-5.5,5.5-5.5c3.037,0,5.5,2.462,5.5,5.5S846.648-192.5,843.611-192.5z   M843.611-213.5c-3.038,0-5.5-2.462-5.5-5.5s2.462-5.5,5.5-5.5c3.037,0,5.5,2.462,5.5,5.5S846.648-213.5,843.611-213.5z   M901.75-132.5h-52v-9h52V-132.5z M906.611-171.5c-3.038,0-5.5-2.462-5.5-5.5s2.462-5.5,5.5-5.5c3.037,0,5.5,2.462,5.5,5.5  S909.648-171.5,906.611-171.5z M906.611-192.5c-3.038,0-5.5-2.462-5.5-5.5s2.462-5.5,5.5-5.5c3.037,0,5.5,2.462,5.5,5.5  S909.648-192.5,906.611-192.5z M906.611-213.5c-3.038,0-5.5-2.462-5.5-5.5s2.462-5.5,5.5-5.5c3.037,0,5.5,2.462,5.5,5.5  S909.648-213.5,906.611-213.5z M927.611-171.5c-3.038,0-5.5-2.462-5.5-5.5s2.462-5.5,5.5-5.5c3.037,0,5.5,2.462,5.5,5.5  S930.648-171.5,927.611-171.5z M927.611-192.5c-3.038,0-5.5-2.462-5.5-5.5s2.462-5.5,5.5-5.5c3.037,0,5.5,2.462,5.5,5.5  S930.648-192.5,927.611-192.5z M927.611-213.5c-3.038,0-5.5-2.462-5.5-5.5s2.462-5.5,5.5-5.5c3.037,0,5.5,2.462,5.5,5.5  S930.648-213.5,927.611-213.5z M948.611-171.5c-3.038,0-5.5-2.462-5.5-5.5s2.462-5.5,5.5-5.5c3.037,0,5.5,2.462,5.5,5.5  S951.648-171.5,948.611-171.5z M948.611-192.5c-3.038,0-5.5-2.462-5.5-5.5s2.462-5.5,5.5-5.5c3.037,0,5.5,2.462,5.5,5.5  S951.648-192.5,948.611-192.5z M948.611-213.5c-3.038,0-5.5-2.462-5.5-5.5s2.462-5.5,5.5-5.5c3.037,0,5.5,2.462,5.5,5.5  S951.648-213.5,948.611-213.5z M969.611-171.5c-3.038,0-5.5-2.462-5.5-5.5s2.462-5.5,5.5-5.5c3.037,0,5.5,2.462,5.5,5.5  S972.648-171.5,969.611-171.5z M969.611-192.5c-3.038,0-5.5-2.462-5.5-5.5s2.462-5.5,5.5-5.5c3.037,0,5.5,2.462,5.5,5.5  S972.648-192.5,969.611-192.5z M969.611-213.5c-3.038,0-5.5-2.462-5.5-5.5s2.462-5.5,5.5-5.5c3.037,0,5.5,2.462,5.5,5.5  S972.648-213.5,969.611-213.5z"
     id="path13" /><circle
     fill="none"
     stroke="#000000"
     stroke-width="12"
     stroke-miterlimit="10"
     cx="976.375"
     cy="408.875"
     r="52"
     id="circle19" /><circle
     cx="976.375"
     cy="408.875"
     r="6.75"
     id="circle21" /><line
     fill="none"
     stroke="#000000"
     stroke-width="8"
     stroke-miterlimit="10"
     x1="946.549"
     y1="453.904"
     x2="940.262"
     y2="471.034"
     id="line23" /><line
     fill="none"
     stroke="#000000"
     stroke-width="8"
     stroke-miterlimit="10"
     x1="1006.201"
     y1="453.904"
     x2="1012.488"
     y2="471.034"
     id="line25" /><path
     d="M914.389,380.309c-8.317-8.07-8.517-21.355-0.447-29.672c8.07-8.316,21.355-8.518,29.672-0.448L914.389,380.309z"
     id="path27" /><path
     d="M1038.718,380.309c8.317-8.07,8.516-21.355,0.446-29.672s-21.354-8.518-29.671-0.448L1038.718,380.309z"
     id="path29" /><line
     fill="none"
     stroke="#000000"
     stroke-width="8"
     stroke-miterlimit="10"
     x1="976.375"
     y1="408.875"
     x2="976.375"
     y2="374.834"
     id="line31" /><line
     fill="none"
     stroke="#000000"
     stroke-width="8"
     stroke-miterlimit="10"
     x1="976.375"
     y1="408.875"
     x2="994.299"
     y2="431.167"
     id="line33" /><path
     fill="none"
     stroke="#000000"
     stroke-width="12"
     stroke-miterlimit="10"
     d="M901.748,81"
     id="path35" /><path
     d="M907.02,81c0-23.748,19.252-43,43-43s43,19.252,43,43c0,69,18.996,66,18.996,66v13h-42.911h-30.333h-50.748v-13  C888.023,147,907.02,150,907.02,81"
     id="path37" /><circle
     fill="none"
     stroke="#000000"
     stroke-width="9"
     stroke-miterlimit="10"
     cx="950.02"
     cy="160"
     r="10.542"
     id="circle39" /><g
     id="g41"><path
       d="M949.27,34c-1.186-1.181-2.081-2.361-3-3.542l-1.237-1.771c-0.366-0.59-0.697-1.181-1.013-1.771   c-0.312-0.59-0.922-1.181-1.425-1.771c-0.481-0.59-0.532-1.181-0.075-1.771c0.426-0.59,1.186-1.181,2.225-1.771   c0.285-0.148,0.506-0.295,0.844-0.443l1.009-0.443l1.255-0.442l0.633-0.222l0.785-0.221h1.5l0.785,0.221l0.633,0.222l1.255,0.442   l1.009,0.443c0.338,0.147,0.559,0.295,0.844,0.443c1.039,0.59,1.799,1.18,2.225,1.771c0.457,0.59,0.406,1.181-0.075,1.771   c-0.503,0.59-1.112,1.181-1.425,1.771c-0.315,0.59-0.646,1.18-1.013,1.771l-1.237,1.771c-0.919,1.18-1.814,2.361-3,3.542H949.27z"
       id="path43" /></g><circle
     fill="none"
     stroke="#000000"
     stroke-width="8.6939"
     stroke-miterlimit="10"
     cx="640.111"
     cy="-289"
     r="40.851"
     id="circle51" /><line
     fill="none"
     stroke="#000000"
     stroke-width="8.6939"
     stroke-miterlimit="10"
     x1="680.962"
     y1="-289"
     x2="615.513"
     y2="-289"
     id="line53" /><polyline
     fill="none"
     stroke="#000000"
     stroke-width="8.6939"
     stroke-linecap="round"
     stroke-miterlimit="10"
     points="  639.834,-313.631 615.513,-289 639.854,-264.348 "
     id="polyline55" /><line
     fill="none"
     x1="381.25"
     y1="-660.5"
     x2="381.25"
     y2="-644.75"
     id="line57" /><path
     fill="#000000"
     d="M381.25-618.5c-27.476,0-49.75,22.274-49.75,49.75S353.774-519,381.25-519S431-541.274,431-568.75  S408.726-618.5,381.25-618.5z M381.25-555.375c-7.387,0-13.375-5.988-13.375-13.375s5.988-13.375,13.375-13.375  s13.375,5.988,13.375,13.375S388.637-555.375,381.25-555.375z"
     id="path59" /><line
     fill="#000000"
     stroke="#ED1C24"
     stroke-miterlimit="10"
     x1="381.25"
     y1="-568.75"
     x2="460.75"
     y2="-568.75"
     id="line61" /><path
     fill="#000000"
     d="M394.884-616.597c-4.194-1.395-4.259-5.903-4.259-5.903v-6.5c0-2.761-2.239-5-5-5h-8.75  c-2.761,0-5,2.239-5,5v6.5c0,0-0.065,4.508-4.259,5.903c-2.069,0.688,0.859,1.208,4.356,1.558c0.448,2.301,2.471,4.04,4.903,4.04  h8.75c2.432,0,4.455-1.738,4.903-4.04C394.025-615.39,396.954-615.909,394.884-616.597z"
     id="path63" /><path
     fill="#000000"
     d="M357.058-612.224c-3.951,1.979-7.186-1.162-7.186-1.162l-4.596-4.596c-1.953-1.953-5.119-1.952-7.071,0  l-6.188,6.188c-1.952,1.952-1.952,5.118,0.001,7.071l4.596,4.596c0,0,3.141,3.234,1.162,7.186c-0.977,1.95,1.461,0.247,4.182-1.979  c1.943,1.31,4.604,1.109,6.323-0.61l6.188-6.188c1.72-1.72,1.921-4.379,0.61-6.323C357.304-610.762,359.008-613.2,357.058-612.224z"
     id="path65" /><path
     fill="#000000"
     d="M333.403-582.384c-1.395,4.194-5.903,4.259-5.903,4.259l-6.499,0c-2.763,0-5.001,2.24-5.001,5v8.75  c0,2.761,2.239,5,5.001,5h6.5c0,0,4.507,0.066,5.902,4.259c0.688,2.07,1.207-0.858,1.558-4.355c2.3-0.448,4.04-2.471,4.04-4.903  v-8.751c0-2.432-1.739-4.455-4.04-4.903C334.61-581.524,334.091-584.454,333.403-582.384z"
     id="path67" /><path
     fill="#000000"
     d="M337.776-544.558c1.979,3.952-1.162,7.186-1.162,7.186l-4.596,4.595c-1.953,1.954-1.953,5.12-0.001,7.072  l6.188,6.188c1.952,1.952,5.118,1.952,7.071-0.001l4.596-4.596c0,0,3.234-3.141,7.186-1.162c1.949,0.978,0.247-1.46-1.979-4.181  c1.311-1.943,1.109-4.604-0.609-6.324l-6.188-6.188c-1.721-1.72-4.381-1.92-6.324-0.61  C339.238-544.804,336.8-546.507,337.776-544.558z"
     id="path69" /><path
     fill="#000000"
     d="M367.616-520.903c4.193,1.395,4.26,5.903,4.26,5.903l-0.001,6.5c0.001,2.763,2.239,5.001,5,5.001h8.75  c2.761,0,4.999-2.239,5-5.001l-0.001-6.5c0,0,0.066-4.508,4.26-5.903c2.07-0.687-0.857-1.208-4.355-1.557  c-0.447-2.301-2.471-4.04-4.902-4.041l-8.75,0c-2.434,0-4.457,1.74-4.904,4.041C368.476-522.111,365.547-521.591,367.616-520.903z"
     id="path71" /><path
     fill="#000000"
     d="M405.442-525.276c3.951-1.979,7.186,1.162,7.186,1.162l4.596,4.596c1.954,1.953,5.119,1.953,7.071,0.001  l6.188-6.188c1.952-1.952,1.952-5.118-0.001-7.072l-4.596-4.595c0,0-3.141-3.234-1.162-7.186c0.979-1.95-1.461-0.248-4.182,1.979  c-1.942-1.311-4.604-1.11-6.323,0.609l-6.187,6.187c-1.721,1.721-1.922,4.382-0.611,6.325  C405.196-526.738,403.493-524.3,405.442-525.276z"
     id="path73" /><path
     fill="#000000"
     d="M429.097-555.116c1.395-4.194,5.902-4.26,5.902-4.26l6.5,0c2.763-0.001,5.001-2.239,5.001-5v-8.75  c0-2.761-2.238-4.999-5.001-5l-6.498,0c0,0-4.509-0.066-5.904-4.26c-0.686-2.07-1.207,0.858-1.557,4.356  c-2.301,0.447-4.041,2.47-4.041,4.902v8.75c0,2.434,1.74,4.458,4.041,4.905C427.89-555.976,428.409-553.047,429.097-555.116z"
     id="path75" /><path
     fill="#000000"
     d="M424.724-592.941c-1.979-3.952,1.162-7.186,1.162-7.186l4.596-4.596c1.953-1.955,1.953-5.12,0.001-7.072  l-6.188-6.188c-1.952-1.952-5.117-1.952-7.071,0.001l-4.595,4.595c0,0-3.235,3.142-7.187,1.164c-1.949-0.98-0.247,1.46,1.979,4.181  c-1.311,1.943-1.109,4.604,0.609,6.324l6.188,6.187c1.721,1.721,4.382,1.921,6.325,0.611  C423.262-592.696,425.7-590.993,424.724-592.941z"
     id="path77" /><path
     fill="#000000"
     d="M326.592-461.097l-2.065-0.858c0,0-1.424-0.616-1.313-2.134c0-0.006,0-0.01,0-0.016  c0.153-1.312,0.153-2.622,0.005-3.909c0-0.003,0-0.005-0.001-0.008c-0.106-1.518,1.319-2.131,1.319-2.131l2.067-0.854  c0.879-0.363,1.297-1.369,0.935-2.247l-1.149-2.784c-0.363-0.878-1.369-1.296-2.248-0.935l-2.068,0.854c0,0-1.443,0.571-2.437-0.58  c-0.003-0.002-0.004-0.003-0.007-0.007c-0.802-1.015-1.726-1.943-2.759-2.766c-0.005-0.004-0.008-0.008-0.013-0.012  c-1.148-0.998-0.574-2.439-0.574-2.439l0.859-2.065c0.365-0.878-0.051-1.885-0.928-2.249l-2.782-1.156  c-0.877-0.365-1.884,0.051-2.249,0.929l-0.859,2.065c0,0-0.616,1.424-2.133,1.314c-0.006-0.001-0.011-0.001-0.017-0.001  c-1.311-0.152-2.621-0.152-3.906-0.005c-0.004,0.001-0.007,0-0.01,0c-1.518,0.108-2.13-1.318-2.13-1.318l-0.854-2.068  c-0.363-0.877-1.37-1.296-2.248-0.934l-2.784,1.149c-0.878,0.362-1.296,1.369-0.934,2.248l0.854,2.067c0,0,0.571,1.442-0.579,2.438  c-0.004,0.002-0.005,0.004-0.009,0.008c-1.015,0.802-1.944,1.726-2.766,2.759c-0.004,0.004-0.007,0.007-0.01,0.011  c-0.998,1.148-2.44,0.574-2.44,0.574l-2.065-0.858c-0.878-0.365-1.885,0.051-2.25,0.928l-1.156,2.782  c-0.364,0.877,0.052,1.885,0.929,2.249l2.066,0.858c0,0,1.423,0.617,1.313,2.134c-0.001,0.005-0.001,0.009,0,0.015  c-0.154,1.312-0.153,2.623-0.006,3.909c0.001,0.003,0,0.005,0.001,0.01c0.107,1.518-1.319,2.13-1.319,2.13l-2.067,0.854  c-0.878,0.363-1.296,1.369-0.935,2.247l1.149,2.784c0.363,0.878,1.369,1.297,2.248,0.934l2.068-0.854c0,0,1.443-0.571,2.437,0.58  c0.002,0.003,0.004,0.004,0.006,0.006c0.803,1.017,1.727,1.946,2.761,2.769c0.004,0.004,0.006,0.006,0.011,0.01  c1.149,0.997,0.575,2.438,0.575,2.438l-0.859,2.066c-0.364,0.878,0.051,1.885,0.928,2.249l2.782,1.156  c0.877,0.364,1.884-0.052,2.249-0.929l0.858-2.066c0,0,0.617-1.424,2.134-1.313c0.006,0.001,0.01,0.001,0.015,0.001  c1.312,0.152,2.622,0.152,3.908,0.004c0.004,0.001,0.007,0.001,0.011,0c1.518-0.107,2.13,1.318,2.13,1.318l0.854,2.068  c0.363,0.879,1.369,1.297,2.248,0.935l2.785-1.149c0.878-0.363,1.296-1.369,0.933-2.248l-0.854-2.067c0,0-0.571-1.442,0.58-2.437  c0.004-0.003,0.005-0.005,0.008-0.008c1.016-0.803,1.945-1.727,2.767-2.76c0.004-0.005,0.006-0.007,0.01-0.012  c0.997-1.147,2.438-0.573,2.438-0.573l2.066,0.858c0.878,0.364,1.885-0.051,2.25-0.928l1.156-2.782  C327.886-459.726,327.47-460.732,326.592-461.097z M301.936-455.803c-5.674-2.357-8.362-8.868-6.004-14.542  c2.358-5.675,8.869-8.362,14.543-6.004c5.674,2.357,8.361,8.869,6.003,14.543C314.12-456.132,307.608-453.445,301.936-455.803z"
     id="path79" /><path
     fill="#000000"
     d="M371.56-433.5h-3.06c0,0-2.123-0.031-2.779-2.005c-0.003-0.008-0.005-0.013-0.008-0.02  c-0.496-1.737-1.185-3.393-2.045-4.939c-0.002-0.004-0.003-0.008-0.005-0.011c-0.932-1.861,0.548-3.382,0.548-3.382l2.163-2.165  c0.919-0.919,0.919-2.411,0-3.33l-2.914-2.912c-0.918-0.92-2.409-0.92-3.328,0l-2.164,2.163c0,0-1.522,1.479-3.383,0.548  c-0.004-0.003-0.007-0.003-0.012-0.006c-1.545-0.861-3.2-1.549-4.937-2.045c-0.008-0.003-0.014-0.006-0.021-0.008  c-1.975-0.657-2.005-2.78-2.005-2.78v-3.06c0-1.3-1.054-2.354-2.354-2.354h-4.119c-1.301,0-2.354,1.054-2.354,2.354v3.06  c0,0-0.031,2.123-2.005,2.78c-0.009,0.002-0.014,0.005-0.022,0.008c-1.735,0.496-3.39,1.184-4.935,2.044  c-0.005,0.002-0.009,0.003-0.014,0.006c-1.861,0.932-3.383-0.548-3.383-0.548l-2.164-2.163c-0.919-0.92-2.41-0.92-3.329,0  l-2.912,2.912c-0.92,0.919-0.92,2.41,0,3.329l2.164,2.164c0,0,1.479,1.522,0.547,3.383c-0.003,0.005-0.004,0.009-0.006,0.014  c-0.861,1.546-1.549,3.201-2.045,4.938c-0.002,0.007-0.005,0.011-0.008,0.019c-0.656,1.974-2.78,2.005-2.78,2.005l-3.059,0  c-1.301,0-2.354,1.054-2.354,2.354v4.119c0,1.3,1.054,2.354,2.354,2.354h3.061c0,0,2.122,0.031,2.778,2.005  c0.002,0.007,0.005,0.012,0.008,0.019c0.496,1.738,1.184,3.393,2.046,4.94c0.002,0.005,0.002,0.007,0.005,0.012  c0.932,1.861-0.547,3.383-0.547,3.383l-2.164,2.162c-0.92,0.921-0.92,2.412,0,3.331l2.912,2.912c0.919,0.919,2.41,0.918,3.329,0  l2.164-2.164c0,0,1.522-1.479,3.383-0.547c0.003,0.002,0.007,0.003,0.01,0.005c1.548,0.862,3.204,1.551,4.942,2.047  c0.007,0.002,0.011,0.005,0.018,0.007c1.974,0.656,2.005,2.779,2.005,2.779v3.059c0,1.302,1.054,2.355,2.354,2.355h4.119  c1.3,0,2.354-1.054,2.354-2.355v-3.059c0,0,0.031-2.122,2.005-2.779c0.007-0.003,0.012-0.005,0.019-0.007  c1.737-0.496,3.392-1.185,4.938-2.045c0.004-0.002,0.009-0.004,0.014-0.006c1.86-0.932,3.383,0.547,3.383,0.547l2.164,2.164  c0.919,0.919,2.41,0.919,3.328,0l2.914-2.912c0.919-0.919,0.919-2.41,0-3.331l-2.163-2.162c0,0-1.479-1.522-0.548-3.383  c0.002-0.005,0.004-0.009,0.006-0.014c0.86-1.546,1.55-3.201,2.044-4.939c0.003-0.007,0.005-0.011,0.008-0.019  c0.656-1.974,2.778-2.005,2.778-2.005h3.061c1.301,0,2.354-1.054,2.354-2.354v-4.119C373.914-432.446,372.86-433.5,371.56-433.5z   M343.195-413.869c-8.405,0-15.218-6.813-15.218-15.218s6.813-15.217,15.218-15.217c8.403,0,15.217,6.813,15.217,15.217  S351.599-413.869,343.195-413.869z"
     id="path81" /><circle
     fill="#000000"
     cx="343.195"
     cy="-429.086"
     r="4.333"
     id="circle83" /><circle
     fill="#000000"
     cx="306.205"
     cy="-466.076"
     r="4.333"
     id="circle85" /><path
     fill="#000000"
     d="M658.487-588.61v28.925H634.13v-28.925c-8.502,4.411-14.315,13.287-14.315,23.527  c0,14.632,11.862,26.494,26.494,26.494s26.493-11.861,26.493-26.494C672.802-575.323,666.989-584.2,658.487-588.61z"
     id="path87" /><path
     fill="#000000"
     d="M656.155-545.5c0-6.627-3.413-12-7.624-12h-4.446c-4.211,0-7.624,5.373-7.624,12l-5.652,73.694  c0,6.627,5.372,12,12,12h7c6.627,0,12-5.373,12-12L656.155-545.5z M646.309-467.5c-3.038,0-5.5-2.462-5.5-5.5s2.462-5.5,5.5-5.5  s5.5,2.462,5.5,5.5S649.346-467.5,646.309-467.5z"
     id="path89" /><path
     fill="#000000"
     d="M88.602,42.638c6.106-6.106,7.933-14.867,5.492-22.567L76.845,37.32L62.321,22.795L79.57,5.547  c-7.701-2.44-16.46-0.613-22.567,5.493c-6.564,6.565-8.188,16.198-4.875,24.283L7.935,73.22c-3.953,3.952-3.953,10.36,0,14.312  l4.174,4.174c3.952,3.952,10.36,3.953,14.312,0l37.896-44.193C72.402,50.827,82.036,49.204,88.602,42.638z M14.61,85.031  c-1.812-1.811-1.812-4.748,0-6.561c1.811-1.811,4.748-1.811,6.559,0c1.812,1.812,1.812,4.75,0,6.561S16.422,86.842,14.61,85.031z"
     id="path91" /></svg>