<svg xmlns="http://www.w3.org/2000/svg" xmlns:xlink="http://www.w3.org/1999/xlink" version="1.0" id="Layer_1" x="0px" y="0px" width="26px" height="26px" viewBox="0 0 26 26" style="enable-background:new 0 0 26 26;" xml:space="preserve">
<g>
	<path d="M21.6,2L21.6,2H18V1c0-0.552-0.447-1-1-1H9C8.448,0,8,0.448,8,1v1H4.4C3.6,2,3,2.6,3,3.4v21.1C3,25.4,3.6,26,4.4,26h17.1   c0.8,0,1.4-0.6,1.4-1.4V3.4C23,2.6,22.4,2,21.6,2z M10,2h6v2h-6V2z M21,24H5V4h3v1c0,0.552,0.448,1,1,1h8c0.553,0,1-0.448,1-1V4h3   V24z"/>
	<path d="M7,13h4V9H7V13z M8,10h2v2H8V10z"/>
	<rect x="13" y="10" width="6" height="2"/>
	<rect x="7" y="15" width="4" height="4"/>
	<rect x="13" y="16" width="6" height="2"/>
</g>
</svg>